<svg width="175" height="175" viewBox="0 0 175 175" fill="none" xmlns="http://www.w3.org/2000/svg">
<path d="M87.5 171.16C74.19 171.16 62.16 161.71 53.6 144.56C45.94 129.19 41.72 108.93 41.72 87.4998C41.72 66.0698 45.94 45.8098 53.6 30.4398C62.16 13.2898 74.19 3.83984 87.5 3.83984C89.6218 3.83984 91.6566 4.6827 93.1569 6.18299C94.6572 7.68328 95.5 9.71811 95.5 11.8398C95.5 13.9616 94.6572 15.9964 93.1569 17.4967C91.6566 18.997 89.6218 19.8398 87.5 19.8398C73.42 19.8398 57.72 47.6298 57.72 87.4998C57.72 127.37 73.42 155.16 87.5 155.16C89.6218 155.16 91.6566 156.003 93.1569 157.503C94.6572 159.003 95.5 161.038 95.5 163.16C95.5 165.282 94.6572 167.316 93.1569 168.817C91.6566 170.317 89.6218 171.16 87.5 171.16Z" fill="white"/>
<path d="M163.16 95.5H11.84C9.71829 95.5 7.68346 94.6571 6.18317 93.1569C4.68288 91.6566 3.84003 89.6217 3.84003 87.5C3.84003 85.3783 4.68288 83.3434 6.18317 81.8431C7.68346 80.3429 9.71829 79.5 11.84 79.5H163.16C165.282 79.5 167.317 80.3429 168.817 81.8431C170.317 83.3434 171.16 85.3783 171.16 87.5C171.16 89.6217 170.317 91.6566 168.817 93.1569C167.317 94.6571 165.282 95.5 163.16 95.5Z" fill="white"/>
<path d="M87.5 171.16C70.9536 171.16 54.7788 166.253 41.021 157.061C27.2632 147.868 16.5403 134.802 10.2082 119.515C3.87621 104.228 2.21947 87.4071 5.44751 71.1786C8.67555 54.9502 16.6434 40.0434 28.3435 28.3433C40.0435 16.6433 54.9503 8.67542 71.1787 5.44738C87.4072 2.21935 104.228 3.87609 119.515 10.2081C134.802 16.5401 147.868 27.2631 157.061 41.0209C166.253 54.7787 171.16 70.9535 171.16 87.4999C171.134 109.68 162.311 130.944 146.627 146.627C130.944 162.311 109.68 171.133 87.5 171.16V171.16ZM87.5 19.8399C74.1181 19.8399 61.0368 23.8081 49.9101 31.2426C38.7835 38.6772 30.1113 49.2443 24.9903 61.6075C19.8693 73.9708 18.5294 87.5749 21.1401 100.7C23.7507 113.824 30.1947 125.88 39.6572 135.343C49.1196 144.805 61.1754 151.249 74.3002 153.86C87.4249 156.47 101.029 155.131 113.392 150.01C125.756 144.889 136.323 136.216 143.757 125.09C151.192 113.963 155.16 100.882 155.16 87.4999C155.141 69.561 148.007 52.3622 135.322 39.6775C122.638 26.9928 105.439 19.8584 87.5 19.8399V19.8399Z" fill="white"/>
<path d="M87.5 171.16C85.3783 171.16 83.3434 170.317 81.8431 168.817C80.3429 167.316 79.5 165.282 79.5 163.16C79.5 161.038 80.3429 159.003 81.8431 157.503C83.3434 156.003 85.3783 155.16 87.5 155.16C101.63 155.16 117.38 127.37 117.38 87.4998C117.38 47.6298 101.63 19.8398 87.5 19.8398C85.3783 19.8398 83.3434 18.997 81.8431 17.4967C80.3429 15.9964 79.5 13.9616 79.5 11.8398C79.5 9.71811 80.3429 7.68328 81.8431 6.18299C83.3434 4.6827 85.3783 3.83984 87.5 3.83984C100.81 3.83984 112.86 13.2898 121.44 30.4298C129.14 45.8098 133.38 66.0798 133.38 87.4998C133.38 108.92 129.14 129.19 121.44 144.57C112.86 161.71 100.81 171.16 87.5 171.16Z" fill="white"/>
</svg>
